<?xml version="1.0" encoding="UTF-8"?>
<svg version="1.1" xmlns="http://www.w3.org/2000/svg" width="1024" height="1024">
<path d="M0 0 C127.215 0.495 127.215 0.495 257 1 C256.0384062 5.80796901 255.04943865 7.8306992 252.4375 11.8125 C249.35163561 16.63998123 246.63269028 21.53694773 244.125 26.6875 C241.10917204 32.83104927 238.00149045 38.91486655 234.75 44.9375 C234.33766113 45.72535889 233.92532227 46.51321777 233.50048828 47.32495117 C232.90469971 48.4151355 232.90469971 48.4151355 232.296875 49.52734375 C231.77625488 50.49788696 231.77625488 50.49788696 231.24511719 51.48803711 C229.59611094 53.49044803 228.53887204 53.53761712 226 54 C224.15827098 54.08820325 222.31362668 54.12199399 220.4697876 54.12025452 C219.34520645 54.12162918 218.22062531 54.12300385 217.06196594 54.12442017 C215.83269882 54.12082489 214.6034317 54.11722961 213.33691406 54.11352539 C212.03910507 54.11367142 210.74129608 54.11381744 209.40415955 54.1139679 C205.84871082 54.11425478 202.29329584 54.10837566 198.73785496 54.10139394 C195.02093743 54.09514225 191.30401914 54.09455516 187.58709717 54.09336853 C180.55007022 54.09026057 173.5130588 54.08205439 166.47603869 54.07201904 C158.46400862 54.06084129 150.45197781 54.05534326 142.43994188 54.05032361 C125.95995216 54.03987134 109.47997806 54.02228225 93 54 C93.31761449 54.51802563 93.63522898 55.03605125 93.96246815 55.56977463 C95.4136629 57.93764264 96.86370094 60.30621697 98.3137207 62.67480469 C98.81339607 63.48972382 99.31307144 64.30464294 99.82788849 65.14425659 C103.07313694 70.44765788 106.22673435 75.78174333 109.1875 81.25 C110.01884375 82.76470046 110.85088154 84.27902018 111.68359375 85.79296875 C112.07788574 86.51145996 112.47217773 87.22995117 112.87841797 87.97021484 C114.47101567 90.85242148 116.10838854 93.70797816 117.75 96.5625 C121.52548929 103.14088804 125.234184 109.75574498 128.9375 116.375 C129.85631958 118.01637939 129.85631958 118.01637939 130.79370117 119.69091797 C133.34869776 124.25631956 135.90244386 128.82236222 138.4453125 133.39453125 C142.69867881 141.02387494 147.09595103 148.55577509 151.5625 156.0625 C155.92316911 163.39669327 160.10821195 170.77844987 164.06640625 178.3359375 C167.89505733 185.6374538 171.97643714 192.80482921 176 200 C176.55558594 200.99483398 177.11117187 201.98966797 177.68359375 203.01464844 C181.77958016 210.34843592 185.88539757 217.67664151 190 225 C190.37833984 225.67450195 190.75667969 226.34900391 191.14648438 227.04394531 C200.86192127 244.33663472 210.99119848 261.43564141 221.69775391 278.1328125 C225.91346904 284.75402416 229.78934599 291.54818124 233.64599609 298.38305664 C236.60379324 303.6082406 239.65359224 308.74595428 242.875 313.8125 C253.87256258 331.1652023 263.78969159 349.12901552 273.50244141 367.22265625 C275.78519717 371.45621178 278.10450024 375.66896546 280.4375 379.875 C280.81422852 380.55739746 281.19095703 381.23979492 281.57910156 381.94287109 C283.59037879 385.56085828 285.6677715 389.12891448 287.80859375 392.671875 C291.17438492 398.25044609 294.38959697 403.91091105 297.60440063 409.57745361 C305.54936016 423.57063622 313.71447914 437.41656018 322.1484375 451.12109375 C322.65850342 451.95108887 323.16856934 452.78108398 323.6940918 453.63623047 C324.66367615 455.21146822 325.63632123 456.78482767 326.61254883 458.35595703 C327.0433374 459.05446777 327.47412598 459.75297852 327.91796875 460.47265625 C328.29719482 461.08375244 328.6764209 461.69484863 329.06713867 462.32446289 C330 464 330 464 331 467 C334.1296362 464.09482717 336.2906574 461.16255931 338.4609375 457.4921875 C339.09773438 456.42226563 339.73453125 455.35234375 340.390625 454.25 C341.04546875 453.13625 341.7003125 452.0225 342.375 450.875 C343.02210938 449.78445313 343.66921875 448.69390625 344.3359375 447.5703125 C345.62167285 445.40322631 346.90498173 443.23469854 348.18579102 441.06469727 C349.81514348 438.31227344 351.46040728 435.57036669 353.11328125 432.83203125 C356.09520766 427.87148074 358.95922426 422.84783122 361.8125 417.8125 C365.27496551 411.71943579 368.77760467 405.66393592 372.4375 399.6875 C377.00731859 392.20740064 381.11934382 384.48179846 385.22045898 376.73706055 C388.37307874 370.82779989 391.72736179 365.13632943 395.39379883 359.53027344 C398.17154044 355.1544543 400.56862974 350.57438393 403 346 C407.70459228 337.18736316 412.73572213 328.58838889 417.82324219 319.99365234 C419.41611232 317.2950263 420.98968913 314.58535547 422.5625 311.875 C426.3101137 305.44041798 430.14800355 299.06105203 433.98925781 292.68212891 C434.84821414 291.25260979 435.70200838 289.81999095 436.5546875 288.38671875 C439.16909344 283.99244887 441.84678496 279.64413781 444.57250977 275.31835938 C448.86256896 268.5057293 452.97841192 261.63790427 456.94140625 254.62890625 C462.18440165 245.35834875 467.53722032 236.1597397 473.375 227.25 C482.3054406 213.61477137 490.12197074 199.16557156 497.7109375 184.75 C501.70249587 177.18184725 505.85161626 169.72574046 510.125 162.3125 C514.72794811 154.32463704 514.72794811 154.32463704 518.9375 146.125 C523.77503823 136.15201063 529.505436 126.6201752 535 117 C536.08871621 115.08864108 537.17726248 113.17718535 538.265625 111.265625 C542.37514994 104.05465607 546.48984372 96.84764014 550.6875 89.6875 C553.32095156 85.18308042 555.92436021 80.66266968 558.5 76.125 C558.84377686 75.52518311 559.18755371 74.92536621 559.54174805 74.30737305 C563.28972494 67.67339306 566.62381803 60.82800386 570 54 C568.34242676 54.00785522 568.34242676 54.00785522 566.65136719 54.01586914 C558.8098796 54.04821825 550.96896076 54.07271019 543.12744141 54.03515625 C540.7177746 54.02447328 538.30810655 54.0140686 535.8984375 54.00390625 C533.98286545 53.99558273 533.98286545 53.99558273 532.02859497 53.98709106 C523.25545119 53.96070114 514.48840519 54.05627692 505.71659088 54.20735455 C498.12666327 54.33496171 490.53737493 54.40267552 482.94646454 54.43624592 C478.1881718 54.4602 473.43402105 54.51377336 468.67712402 54.634552 C464.12704321 54.74927294 459.58235719 54.78717584 455.03092575 54.77028084 C453.33851351 54.77750435 451.64595893 54.81234112 449.95476151 54.87685966 C444.56441371 55.07271446 440.06713036 54.97719652 435 53 C431.08209232 49.08053082 428.97114939 44.04752571 426.87973404 38.99551392 C425.54631182 35.9708923 423.83608959 33.28771313 422.0625 30.5 C421.42183594 29.47261719 420.78117187 28.44523437 420.12109375 27.38671875 C419.42113281 26.26910156 418.72117187 25.15148437 418 24 C417.11523021 22.56941543 416.23115248 21.13840269 415.34765625 19.70703125 C414.44030233 18.24206475 413.53275268 16.77721945 412.625 15.3125 C412.19582275 14.61640625 411.76664551 13.9203125 411.32446289 13.203125 C409.69303251 10.58189288 408.19115611 8.19115611 406 6 C406.375 3.375 406.375 3.375 407 1 C425.59102036 -0.2652518 444.16668763 -0.04817916 462.78638792 0.10053515 C467.35321951 0.13563925 471.92009448 0.16377334 476.48696899 0.19264221 C485.17670267 0.24851875 493.86638861 0.30978256 502.55606902 0.37336355 C519.75713191 0.49907953 536.958269 0.61417396 554.15941715 0.72754335 C556.9547775 0.74605296 559.75013589 0.76483981 562.54549408 0.78367233 C596.03072208 1.00806988 629.51410113 1.07059807 663 1 C661.99762869 8.67037869 661.99762869 8.67037869 659.8125 12.27734375 C659.36543701 13.03023682 658.91837402 13.78312988 658.45776367 14.55883789 C657.97670166 15.34379639 657.49563965 16.12875488 657 16.9375 C655.99512151 18.62181617 654.99123086 20.30672204 653.98828125 21.9921875 C653.48506348 22.83104492 652.9818457 23.66990234 652.46337891 24.53417969 C650.30386168 28.17300584 648.24335988 31.86444578 646.1875 35.5625 C643.87246181 39.70586083 641.53418532 43.82226457 639.0625 47.875 C636.30462686 52.40796829 633.7470367 57.04096389 631.1875 61.6875 C628.16402725 67.17273498 625.07655244 72.59184431 621.8125 77.9375 C617.64731114 84.76190045 613.79363858 91.74735945 609.9375 98.75 C604.07339703 109.38684771 597.99451571 119.86899949 591.76904297 130.29833984 C587.79847396 136.9533735 583.88606791 143.63446978 580.0625 150.375 C574.51715536 160.14940414 568.8384774 169.84302674 563.13696289 179.52685547 C559.01876851 186.52598035 554.95334881 193.5525291 550.93359375 200.60864258 C547.9314579 205.8741311 544.90399681 211.12493073 541.875 216.375 C541.23828369 217.4791626 540.60156738 218.5833252 539.94555664 219.72094727 C534.91233008 228.44053303 529.84466944 237.13971355 524.74365234 245.81982422 C521.49998588 251.35738662 518.38075443 256.94761471 515.32446289 262.59057617 C513.80685055 265.35137179 512.18637818 268.0266816 510.5 270.6875 C502.41240847 283.69594857 494.75412255 296.98761003 487.3125 310.375 C484.28531085 315.82087707 481.09532234 321.14216995 477.8125 326.4375 C472.75929362 334.60188219 468.06424836 342.94433329 463.40356445 351.33764648 C459.35730168 358.61212923 455.21651861 365.82299732 451 373 C442.90954826 386.78633859 435.10508995 400.73070064 427.390625 414.73046875 C422.10077308 424.32199368 416.64257932 433.80352597 411.10375977 443.25366211 C407.82740735 448.84851278 404.58963186 454.45929242 401.4375 460.125 C397.89891743 466.48126551 394.214352 472.74500568 390.5 479 C384.70739276 488.75795438 379.01427008 498.56545514 373.62231445 508.55151367 C370.25518798 514.7805611 366.71748617 520.87408244 363.0625 526.9375 C357.82585001 535.71159655 352.87663827 544.61481081 348.0625 553.625 C347.44834229 554.77347412 346.83418457 555.92194824 346.20141602 557.10522461 C342.35325075 564.3478734 338.63173842 571.64654203 335 579 C333.19384766 578.82641602 333.19384766 578.82641602 331 578 C329.41943359 575.75366211 329.41943359 575.75366211 327.8984375 572.77734375 C327.33116943 571.68977783 326.76390137 570.60221191 326.17944336 569.48168945 C325.58397705 568.31210693 324.98851074 567.14252441 324.375 565.9375 C323.12156361 563.52947224 321.85678604 561.12750707 320.58984375 558.7265625 C319.66727783 556.97714355 319.66727783 556.97714355 318.72607422 555.19238281 C316.61654167 551.29079191 314.34759712 547.53372214 311.9375 543.8125 C307.26260656 536.5647684 303.03992507 529.09258761 298.82275391 521.57104492 C294.37951101 513.65016799 289.81750984 505.80830225 285.18408203 497.99755859 C281.9143219 492.48143954 278.66839156 486.95120703 275.421875 481.42138672 C274.42251065 479.7195159 273.42244829 478.01805487 272.421875 476.31689453 C264.00293715 461.99437321 255.79474397 447.56696054 247.70703125 433.05517578 C243.37838416 425.30793756 238.99434404 417.59180548 234.62207031 409.86914062 C232.96063771 406.93037544 231.30396627 403.98896966 229.6484375 401.046875 C224.89900869 392.61268793 220.14397611 384.18952507 215.1875 375.875 C210.66939145 368.28881981 206.42985998 360.55461409 202.1875 352.8125 C195.37648444 340.387588 188.3090367 328.14003636 181 316 C180.6189209 315.36658691 180.2378418 314.73317383 179.84521484 314.08056641 C177.78403517 310.65528568 177.78403517 310.65528568 175.72167969 307.23071289 C169.80972536 297.38838432 164.04120587 287.45971201 158.24568176 277.54855347 C155.88078812 273.5042919 153.51179269 269.46246293 151.140625 265.421875 C145.53866872 255.86338178 140.0088426 246.27970963 134.67700195 236.56787109 C131.66271143 231.11063818 128.48437663 225.76672664 125.25 220.4375 C119.98547675 211.76043757 115.00523566 202.94217305 110.07348633 194.07250977 C106.76495325 188.12959899 103.4123978 182.22216322 99.9375 176.375 C93.19967855 165.02978943 86.78254678 153.50169 80.31347656 142.00195312 C74.46443334 131.60894082 68.59508709 121.23553536 62.51342773 110.9765625 C59.90097948 106.56109755 57.36706234 102.10931251 54.875 97.625 C50.65458662 90.04626092 46.23974374 82.58397899 41.8125 75.125 C41.47047546 74.54872864 41.12845093 73.97245728 40.77606201 73.37872314 C37.42887793 67.74221705 34.06928321 62.1141859 30.671875 56.5078125 C28.7554833 53.31736627 27.00230687 50.13041902 25.4375 46.75 C18.70112726 33.04679967 10.71940201 19.74182995 1.51171875 7.55859375 C0 5 0 5 0 0 Z " fill="#E1E2DD" transform="translate(181,275)"/>
<path d="M0 0 C0.99 0 1.98 0 3 0 C3.52001587 0.96486328 3.52001587 0.96486328 4.05053711 1.94921875 C12.25468744 17.19389904 12.25468744 17.19389904 20.6875 32.3125 C24.33924924 38.738046 27.78806751 45.25859116 31.20874023 51.80957031 C34.36708605 57.8412893 37.63887767 63.80048001 40.97070312 69.73779297 C43.48114529 74.22583691 45.93817979 78.73835637 48.35546875 83.27734375 C54.08126692 94.02846444 59.85589773 104.66978984 66.30615234 115.00561523 C69.50296389 120.13539645 72.40817008 125.36791512 75.22265625 130.71875 C77.21560464 134.39803934 79.3485136 137.97467523 81.5 141.5625 C86.08687642 149.24023928 90.30805711 157.10227837 94.5 165 C98.87665174 173.24548299 103.32590131 181.41211751 108.15014648 189.40576172 C112.19557841 196.18163189 115.86397865 203.15646325 119.5625 210.125 C124.44333644 219.31519541 129.44124392 228.37030104 134.91552734 237.22216797 C137.47342871 241.41546778 139.92088739 245.67622462 142.38720703 249.92382812 C145.34187022 254.97961112 148.50816006 259.84097309 151.91796875 264.60546875 C153.37239761 267.82411456 152.78458966 269.58667944 152 273 C150.86767578 275.52270508 150.86767578 275.52270508 149.4453125 278.01953125 C148.91800537 278.95144287 148.39069824 279.88335449 147.84741211 280.84350586 C147.27901611 281.82327393 146.71062012 282.80304199 146.125 283.8125 C145.25403687 285.33532593 145.25403687 285.33532593 144.36547852 286.88891602 C140.3309441 293.87855306 136.10969829 300.72334153 131.60400391 307.41918945 C128.67515685 311.79662232 126.27843455 316.24843787 124 321 C122.11621094 320.66894531 122.11621094 320.66894531 120 320 C118.57033301 317.92157656 117.40686979 315.97237684 116.25 313.75 C115.54638958 312.45587705 114.8406111 311.16293081 114.1328125 309.87109375 C113.77735352 309.21737793 113.42189453 308.56366211 113.05566406 307.89013672 C111.51499453 305.13161139 109.8198959 302.47835853 108.125 299.8125 C104.43467973 293.87496135 101.19858775 287.75801745 97.98168945 281.55395508 C94.89119878 275.62232872 91.65281831 269.79428266 88.3125 264 C83.59247959 255.81128115 78.95714814 247.57916728 74.375 239.3125 C73.73506104 238.15806396 73.09512207 237.00362793 72.43579102 235.81420898 C71.19156115 233.56838128 69.9476536 231.32237497 68.70410156 229.07617188 C66.79128523 225.62323696 64.8727553 222.17351463 62.953125 218.72436523 C59.55039567 212.61008596 56.16630225 206.48607846 52.80151367 200.35083008 C48.60385641 192.6976309 44.35833515 185.08089541 40.00390625 177.515625 C38.16656494 174.30962399 36.37943779 171.07728086 34.59643555 167.84082031 C27.94259087 155.77000394 20.99648991 143.87475877 14 132 C13.41766602 131.0085498 12.83533203 130.01709961 12.23535156 128.99560547 C10.57973378 126.18086805 8.91642147 123.37085172 7.25 120.5625 C6.74871582 119.70994629 6.24743164 118.85739258 5.73095703 117.97900391 C5.26802246 117.20347168 4.80508789 116.42793945 4.328125 115.62890625 C3.9249707 114.94900635 3.52181641 114.26910645 3.10644531 113.56860352 C2.07133927 111.8385366 2.07133927 111.8385366 0 111 C-0.26296875 111.71800781 -0.5259375 112.43601562 -0.796875 113.17578125 C-2.0376342 116.08834262 -3.51511419 118.54218988 -5.25 121.1875 C-17.35654459 139.70829183 -28.05676298 159.24392649 -38.50830078 178.7331543 C-41.68266102 184.63154488 -44.97269884 190.41796917 -48.47363281 196.12719727 C-56.62506629 209.50168207 -64.0948554 223.32826794 -71.453125 237.15234375 C-73.11978086 240.22050568 -74.86772974 243.23286862 -76.625 246.25 C-81.08878835 253.93856989 -85.12270133 261.85222267 -89.16845703 269.76660156 C-92.39401118 276.0428723 -95.78879015 282.17189217 -99.40820312 288.23022461 C-101.0461783 291.08035165 -102.50801332 293.97802189 -103.9375 296.9375 C-111.62661917 312.62661917 -111.62661917 312.62661917 -117 318 C-119.57318703 317.81323643 -120.69871616 317.31069896 -122.5 315.453125 C-127.26593863 308.45315263 -131.4352368 301.14567897 -135.56054688 293.75292969 C-141.27727571 283.30502078 -141.27727571 283.30502078 -148.875 274.25 C-151 272 -151 272 -151.35107422 269.63061523 C-150.90451 266.28448901 -149.7766109 265.13409161 -147.5078125 262.66015625 C-142.55955386 256.7711847 -139.32046899 250.42142544 -135.93118286 243.57058716 C-134.11167692 239.89587807 -132.25178939 236.24167201 -130.39453125 232.5859375 C-129.83810188 231.48793571 -129.83810188 231.48793571 -129.27043152 230.36775208 C-124.31530157 220.62840094 -118.90987731 211.14571686 -113.50341797 201.65136719 C-111.34625499 197.84708172 -109.236427 194.01728332 -107.125 190.1875 C-102.20755618 181.30105016 -97.15317219 172.49287622 -92.10742188 163 67895508 C-85.6950441 152.47695255 -79.325419 141.25135238 -73 130 C-72.54931152 129.19916992 -72.09862305 128.39833984 -71.63427734 127.57324219 C-67.39912692 120.03742105 -63.23099336 112.48040427 -59.25732422 104.80297852 C-55.80309859 98.13263407 -52.25369141 91.63078617 -48.1875 85.3125 C-42.07315023 75.80507556 -36.86385064 65.81487481 -31.53564453 55.85351562 C-29.37508529 51.83879124 -27.16266293 47.85418397 -24.9375 43.875 C-21.72607348 38.13131053 -18.56633213 32.3623658 -15.4375 26.57324219 C-7.58542835 12.07144735 -7.58542835 12.07144735 -3.4375 5.125 C-2.83808594 4.11695313 -2.23867188 3.10890625 -1.62109375 2.0703125 C-1.08613281 1.38710937 -0.55117188 0.70390625 0 0 Z " fill="#E1E2DD" transform="translate(512,182)"/>
<path d="M0 0 C14.52 0 29.04 0 44 0 C43.99476318 5.17026855 43.98952637 10.34053711 43.98413086 15.66748047 C43.96120477 39.7366497 43.94691912 63.80582187 43.9375 87.875 C43.9370657 88.95323768 43.93663139 90.03147536 43.93618393 91.14238691 C43.91492807 145.36760485 43.91303781 199.58988432 44.5 253.8125 C44.51793673 255.47111179 44.51793673 255.47111179 44.53623581 257.1632309 C44.67405022 269.77575191 44.83322704 282.38779491 45 295 C30.15 295 15.3 295 0 295 C0 197.65 0 100.3 0 0 Z " fill="#E1E2DD" transform="translate(491,368)"/>
</svg>